<?xml version="1.0" encoding="utf-8"?>
<!-- Generator: Adobe Illustrator 18.1.1, SVG Export Plug-In . SVG Version: 6.00 Build 0)  -->
<svg version="1.1" id="Camada_1" xmlns="http://www.w3.org/2000/svg" xmlns:xlink="http://www.w3.org/1999/xlink" x="0px" y="0px"
	 viewBox="0 215.9 595.3 626" enable-background="new 0 215.9 595.3 626" xml:space="preserve">
<g>
	<path fill="#179087" d="M252.9,581c-30.8-33.4-31.1-58.1-1.2-93.7l29.6-33.5l-23.4-29L224,463.5c-41.9,50.1-41.2,95.3,1.9,142.2
		l29.5,33.1l23.2-29.1L252.9,581z"/>
	<path fill="#EB6608" d="M329.2,398.9l73.3-82.6c6.7-6.7,16.7-9.9,31.4-9.9c29.5,0,53.4,24,53.4,53.4c0,12.8-4.6,25.3-13,35
		L400,487.2l23.7,29.3l78.4-98c14-16.3,21.7-37.1,21.7-58.6c0-49.6-40.4-90-90-90c-25.1,0-44.1,7-57.9,21.3l-70.2,78.9L329.2,398.9z
		"/>
	<path fill="#00617C" d="M411.8,529.7l90.7,112.8c13.6,15.8,21.3,36.6,21.3,58.1c0,49.6-40.4,90-90,90c-23.3,0-48.9-11.4-66.7-29.6
		l-0.5-0.6l-62.7-68l23.1-29l66.6,72.2c10.9,11,27,18.4,40.3,18.4c29.5,0,53.4-24,53.4-53.4c0-12.7-4.6-25.1-12.8-34.7l-86-106.9
		L365,529.8l-72.5-90.2l-23.3-28.9l-73.7-91.6c-7-9-19.7-14.2-34.1-14.2c-15.3,0-30.3,5.9-40.1,15.7c-10.2,10.2-14.8,20.9-15.6,36.7
		v343.4c0,39.4,27.6,53.4,53.4,53.4c18.3,0,31-6.1,42.7-20.4l66.3-82.8l23.2-28.9l63.1-77.4l23.4,29.2l-61.7,75.8l-23.2,28.9
		l-62.7,78.2c-18.7,22.9-41.9,34-71.1,34c-53,0-90-37-90-90L69,356c1.2-25,9.6-44.5,26.3-61.2c16.8-16.8,40.8-26.4,66-26.4
		c25.9,0,48.8,10.2,62.8,28.1l69.6,86.5L411.8,529.7z"/>
</g>
</svg>
